<svg width="12" height="23" viewBox="0 0 12 23" fill="none" xmlns="http://www.w3.org/2000/svg">
<path d="M0.26712 0.270657C0.0958717 0.447604 0 0.68514 0 0.932489C0 1.17984 0.0958717 1.41737 0.26712 1.59432L9.83452 11.5L0.26712 21.4037C0.0958717 21.5806 0 21.8182 0 22.0655C0 22.3129 0.0958717 22.5504 0.26712 22.7274C0.350358 22.8136 0.44988 22.8822 0.55981 22.9291C0.66974 22.9759 0.787851 23 0.907171 23C1.02649 23 1.1446 22.9759 1.25453 22.9291C1.36446 22.8822 1.46399 22.8136 1.54722 22.7274L11.7213 12.1916C11.9 12.0065 12 11.7584 12 11.5C12 11.2416 11.9 10.9935 11.7213 10.8084L1.54722 0.272639C1.46399 0.186357 1.36446 0.117778 1.25453 0.0709516C1.1446 0.0241252 1.02649 0 0.907171 0C0.787851 0 0.66974 0.0241252 0.55981 0.0709516C0.44988 0.117778 0.350358 0.186357 0.26712 0.272639V0.270657Z" fill="#F3F3F3"/>
</svg>
