<svg width="12" height="23" viewBox="0 0 12 23" fill="none" xmlns="http://www.w3.org/2000/svg">
<path d="M11.7329 22.7293C11.9041 22.5524 12 22.3149 12 22.0675C12 21.8202 11.9041 21.5826 11.7329 21.4057L2.16548 11.5L11.7329 1.5963C11.9041 1.41936 12 1.18182 12 0.934471C12 0.68712 11.9041 0.449583 11.7329 0.272638C11.6496 0.186356 11.5501 0.117777 11.4402 0.0709495C11.3303 0.0241241 11.2122 -6.88761e-08 11.0928 -7.93074e-08C10.9735 -8.97387e-08 10.8554 0.024124 10.7455 0.0709494C10.6355 0.117777 10.536 0.186355 10.4528 0.272638L0.278701 10.8084C0.100009 10.9935 1.02795e-06 11.2416 1.00536e-06 11.5C9.82774e-07 11.7584 0.100009 12.0065 0.278701 12.1916L10.4528 22.7274C10.536 22.8136 10.6355 22.8822 10.7455 22.929C10.8554 22.9759 10.9735 23 11.0928 23C11.2121 23 11.3303 22.9759 11.4402 22.929C11.5501 22.8822 11.6496 22.8136 11.7329 22.7274L11.7329 22.7293Z" fill="#F3F3F3"/>
</svg>
