<svg width="220" height="16" viewBox="0 0 220 16" fill="none" xmlns="http://www.w3.org/2000/svg">
<path d="M3.20455 12L0.545455 3.27273H1.95455L3.84091 9.95455H3.93182L5.79545 3.27273H7.22727L9.06818 9.93182H9.15909L11.0455 3.27273H12.4545L9.79545 12H8.47727L6.56818 5.29545H6.43182L4.52273 12H3.20455ZM14.2273 12V3.27273H15.5682V12H14.2273ZM14.9091 1.81818C14.6477 1.81818 14.4223 1.72917 14.233 1.55114C14.0473 1.37311 13.9545 1.15909 13.9545 0.909091C13.9545 0.659091 14.0473 0.445076 14.233 0.267045C14.4223 0.089015 14.6477 0 14.9091 0C15.1705 0 15.3939 0.089015 15.5795 0.267045C15.7689 0.445076 15.8636 0.659091 15.8636 0.909091C15.8636 1.15909 15.7689 1.37311 15.5795 1.55114C15.3939 1.72917 15.1705 1.81818 14.9091 1.81818ZM19.3651 0.363636V12H18.0241V0.363636H19.3651ZM23.1619 0.363636V12H21.821V0.363636H23.1619ZM25.6179 12V3.27273H26.9588V12H25.6179ZM26.2997 1.81818C26.0384 1.81818 25.813 1.72917 25.6236 1.55114C25.438 1.37311 25.3452 1.15909 25.3452 0.909091C25.3452 0.659091 25.438 0.445076 25.6236 0.267045C25.813 0.089015 26.0384 0 26.2997 0C26.5611 0 26.7846 0.089015 26.9702 0.267045C27.1596 0.445076 27.2543 0.659091 27.2543 0.909091C27.2543 1.15909 27.1596 1.37311 26.9702 1.55114C26.7846 1.72917 26.5611 1.81818 26.2997 1.81818ZM33.0739 12.1818C32.233 12.1818 31.5076 11.9962 30.8977 11.625C30.2917 11.25 29.8239 10.7273 29.4943 10.0568C29.1686 9.38258 29.0057 8.59848 29.0057 7.70455C29.0057 6.81061 29.1686 6.02273 29.4943 5.34091C29.8239 4.6553 30.2822 4.12121 30.8693 3.73864C31.4602 3.35227 32.1496 3.15909 32.9375 3.15909C33.392 3.15909 33.8409 3.23485 34.2841 3.38636C34.7273 3.53788 35.1307 3.78409 35.4943 4.125C35.858 4.46212 36.1477 4.90909 36.3636 5.46591C36.5795 6.02273 36.6875 6.70833 36.6875 7.52273V8.09091H29.9602V6.93182H35.3239C35.3239 6.43939 35.2254 6 35.0284 5.61364C34.8352 5.22727 34.5587 4.92235 34.1989 4.69886C33.8428 4.47538 33.4223 4.36364 32.9375 4.36364C32.4034 4.36364 31.9413 4.49621 31.5511 4.76136C31.1648 5.02273 30.8674 5.36364 30.6591 5.78409C30.4508 6.20455 30.3466 6.6553 30.3466 7.13636V7.90909C30.3466 8.56818 30.4602 9.12689 30.6875 9.58523C30.9186 10.0398 31.2386 10.3864 31.6477 10.625C32.0568 10.8598 32.5322 10.9773 33.0739 10.9773C33.4261 10.9773 33.7443 10.928 34.0284 10.8295C34.3163 10.7273 34.5644 10.5758 34.7727 10.375C34.9811 10.1705 35.142 9.91667 35.2557 9.61364L36.5511 9.97727C36.4148 10.4167 36.1856 10.803 35.8636 11.1364C35.5417 11.4659 35.1439 11.7235 34.6705 11.9091C34.197 12.0909 33.6648 12.1818 33.0739 12.1818ZM39.7045 12.0909C39.4242 12.0909 39.1837 11.9905 38.983 11.7898C38.7822 11.589 38.6818 11.3485 38.6818 11.0682C38.6818 10.7879 38.7822 10.5473 38.983 10.3466C39.1837 10.1458 39.4242 10.0455 39.7045 10.0455C39.9848 10.0455 40.2254 10.1458 40.4261 10.3466C40.6269 10.5473 40.7273 10.7879 40.7273 11.0682C40.7273 11.2538 40.6799 11.4242 40.5852 11.5795C40.4943 11.7348 40.3712 11.8598 40.2159 11.9545C40.0644 12.0455 39.8939 12.0909 39.7045 12.0909ZM43.1335 3.27273H44.4744V12.6364C44.4744 13.1742 44.3816 13.6402 44.196 14.0341C44.0142 14.428 43.7377 14.733 43.3665 14.9489C42.9991 15.1648 42.535 15.2727 41.9744 15.2727C41.929 15.2727 41.8835 15.2727 41.8381 15.2727C41.7926 15.2727 41.7472 15.2727 41.7017 15.2727V14.0227C41.7472 14.0227 41.7888 14.0227 41.8267 14.0227C41.8646 14.0227 41.9062 14.0227 41.9517 14.0227C42.3608 14.0227 42.66 13.9015 42.8494 13.6591C43.0388 13.4205 43.1335 13.0795 43.1335 12.6364V3.27273ZM43.7926 1.81818C43.5313 1.81818 43.3059 1.72917 43.1165 1.55114C42.9309 1.37311 42.8381 1.15909 42.8381 0.909091C42.8381 0.659091 42.9309 0.445076 43.1165 0.267045C43.3059 0.089015 43.5313 0 43.7926 0C44.054 0 44.2775 0.089015 44.4631 0.267045C44.6525 0.445076 44.7472 0.659091 44.7472 0.909091C44.7472 1.15909 44.6525 1.37311 44.4631 1.55114C44.2775 1.72917 44.054 1.81818 43.7926 1.81818ZM50.5895 12.1818C49.7486 12.1818 49.0232 11.9962 48.4134 11.625C47.8073 11.25 47.3395 10.7273 47.0099 10.0568C46.6842 9.38258 46.5213 8.59848 46.5213 7.70455C46.5213 6.81061 46.6842 6.02273 47.0099 5.34091C47.3395 4.6553 47.7978 4.12121 48.3849 3.73864C48.9759 3.35227 49.6652 3.15909 50.4531 3.15909C50.9077 3.15909 51.3565 3.23485 51.7997 3.38636C52.2429 3.53788 52.6463 3.78409 53.0099 4.125C53.3736 4.46212 53.6634 4.90909 53.8793 5.46591C54.0952 6.02273 54.2031 6.70833 54.2031 7.52273V8.09091H47.4759V6.93182H52.8395C52.8395 6.43939 52.741 6 52.544 5.61364C52.3509 5.22727 52.0743 4.92235 51.7145 4.69886C51.3584 4.47538 50.938 4.36364 50.4531 4.36364C49.919 4.36364 49.4569 4.49621 49.0668 4.76136C48.6804 5.02273 48.383 5.36364 48.1747 5.78409C47.9664 6.20455 47.8622 6.6553 47.8622 7.13636V7.90909C47.8622 8.56818 47.9759 9.12689 48.2031 9.58523C48.4342 10.0398 48.7543 10.3864 49.1634 10.625C49.5724 10.8598 50.0478 10.9773 50.5895 10.9773C50.9418 10.9773 51.2599 10.928 51.544 10.8295C51.8319 10.7273 52.08 10.5758 52.2884 10.375C52.4967 10.1705 52.6577 9.91667 52.7713 9.61364L54.0668 9.97727C53.9304 10.4167 53.7012 10.803 53.3793 11.1364C53.0573 11.4659 52.6596 11.7235 52.1861 11.9091C51.7126 12.0909 51.1804 12.1818 50.5895 12.1818ZM57.5838 6.75V12H56.2429V3.27273H57.5384V4.63636H57.652C57.8565 4.19318 58.1671 3.83712 58.5838 3.56818C59.0005 3.29545 59.5384 3.15909 60.1974 3.15909C60.7884 3.15909 61.3054 3.2803 61.7486 3.52273C62.1918 3.76136 62.5365 4.125 62.7827 4.61364C63.0289 5.09848 63.152 5.71212 63.152 6.45455V12H61.8111V6.54545C61.8111 5.85985 61.633 5.32576 61.277 4.94318C60.9209 4.55682 60.4323 4.36364 59.8111 4.36364C59.383 4.36364 59.0005 4.45644 58.6634 4.64205C58.33 4.82765 58.0668 5.09848 57.8736 5.45455C57.6804 5.81061 57.5838 6.24242 57.5838 6.75ZM66.9432 6.75V12H65.6023V3.27273H66.8977V4.63636H67.0114C67.2159 4.19318 67.5265 3.83712 67.9432 3.56818C68.3598 3.29545 68.8977 3.15909 69.5568 3.15909C70.1477 3.15909 70.6648 3.2803 71.108 3.52273C71.5511 3.76136 71.8958 4.125 72.142 4.61364C72.3883 5.09848 72.5114 5.71212 72.5114 6.45455V12H71.1705V6.54545C71.1705 5.85985 70.9924 5.32576 70.6364 4.94318C70.2803 4.55682 69.7917 4.36364 69.1705 4.36364C68.7424 4.36364 68.3598 4.45644 68.0227 4.64205C67.6894 4.82765 67.4261 5.09848 67.233 5.45455C67.0398 5.81061 66.9432 6.24242 66.9432 6.75ZM74.9616 12V3.27273H76.3026V12H74.9616ZM75.6435 1.81818C75.3821 1.81818 75.1567 1.72917 74.9673 1.55114C74.7817 1.37311 74.6889 1.15909 74.6889 0.909091C74.6889 0.659091 74.7817 0.445076 74.9673 0.267045C75.1567 0.089015 75.3821 0 75.6435 0C75.9048 0 76.1283 0.089015 76.3139 0.267045C76.5033 0.445076 76.598 0.659091 76.598 0.909091C76.598 1.15909 76.5033 1.37311 76.3139 1.55114C76.1283 1.72917 75.9048 1.81818 75.6435 1.81818ZM80.0994 6.75V12H78.7585V3.27273H80.054V4.63636H80.1676C80.3722 4.19318 80.6828 3.83712 81.0994 3.56818C81.5161 3.29545 82.054 3.15909 82.7131 3.15909C83.304 3.15909 83.821 3.2803 84.2642 3.52273C84.7074 3.76136 85.0521 4.125 85.2983 4.61364C85.5445 5.09848 85.6676 5.71212 85.6676 6.45455V12H84.3267V6.54545C84.3267 5.85985 84.1487 5.32576 83.7926 4.94318C83.4366 4.55682 82.9479 4.36364 82.3267 4.36364C81.8987 4.36364 81.5161 4.45644 81.179 4.64205C80.8456 4.82765 80.5824 5.09848 80.3892 5.45455C80.196 5.81061 80.0994 6.24242 80.0994 6.75ZM91.6406 15.4545C90.9929 15.4545 90.4361 15.3712 89.9702 15.2045C89.5043 15.0417 89.116 14.8258 88.8054 14.5568C88.4986 14.2917 88.2543 14.0076 88.0724 13.7045L89.1406 12.9545C89.2618 13.1136 89.4152 13.2955 89.6009 13.5C89.7865 13.7083 90.0402 13.8883 90.3622 14.0398C90.688 14.1951 91.1141 14.2727 91.6406 14.2727C92.3452 14.2727 92.9266 14.1023 93.3849 13.7614C93.8433 13.4205 94.0724 12.8864 94.0724 12.1591V10.3864H93.9588C93.8603 10.5455 93.7202 10.7424 93.5384 10.9773C93.3603 11.2083 93.1027 11.4148 92.7656 11.5966C92.4323 11.7746 91.9815 11.8636 91.4134 11.8636C90.7088 11.8636 90.0762 11.697 89.5156 11.3636C88.9588 11.0303 88.5175 10.5455 88.1918 9.90909C87.8698 9.27273 87.7088 8.5 87.7088 7.59091C87.7088 6.69697 87.866 5.91856 88.1804 5.25568C88.4948 4.58901 88.9323 4.07386 89.4929 3.71023C90.0535 3.3428 90.7012 3.15909 91.4361 3.15909C92.0043 3.15909 92.455 3.25379 92.7884 3.44318C93.1255 3.62879 93.383 3.84091 93.5611 4.07955C93.7429 4.31439 93.883 4.50758 93.9815 4.65909H94.1179V3.27273H95.4134V12.25C95.4134 13 95.2429 13.6098 94.902 14.0795C94.5649 14.553 94.1103 14.8996 93.5384 15.1193C92.9702 15.3428 92.3376 15.4545 91.6406 15.4545ZM91.5952 10.6591C92.133 10.6591 92.5876 10.536 92.9588 10.2898C93.33 10.0436 93.6122 9.68939 93.8054 9.22727C93.9986 8.76515 94.0952 8.21212 94.0952 7.56818C94.0952 6.93939 94.0005 6.38447 93.8111 5.90341C93.6217 5.42235 93.3414 5.04545 92.9702 4.77273C92.599 4.5 92.1406 4.36364 91.5952 4.36364C91.027 4.36364 90.5535 4.50758 90.1747 4.79545C89.7997 5.08333 89.5175 5.4697 89.3281 5.95455C89.1425 6.43939 89.0497 6.97727 89.0497 7.56818C89.0497 8.17424 89.1444 8.71023 89.3338 9.17614C89.527 9.63826 89.8111 10.0019 90.1861 10.267C90.5649 10.5284 91.0346 10.6591 91.5952 10.6591ZM104.05 5.22727L102.845 5.56818C102.769 5.36742 102.658 5.17235 102.51 4.98295C102.366 4.78977 102.169 4.63068 101.919 4.50568C101.669 4.38068 101.349 4.31818 100.959 4.31818C100.425 4.31818 99.9796 4.44129 99.6236 4.6875C99.2713 4.92992 99.0952 5.23864 99.0952 5.61364C99.0952 5.94697 99.2164 6.21023 99.4588 6.40341C99.7012 6.59659 100.08 6.75758 100.595 6.88636L101.891 7.20455C102.671 7.39394 103.252 7.68371 103.635 8.07386C104.018 8.46023 104.209 8.95833 104.209 9.56818C104.209 10.0682 104.065 10.5152 103.777 10.9091C103.493 11.303 103.095 11.6136 102.584 11.8409C102.072 12.0682 101.478 12.1818 100.8 12.1818C99.9096 12.1818 99.1728 11.9886 98.5895 11.6023C98.0062 11.2159 97.6368 10.6515 97.4815 9.90909L98.7543 9.59091C98.8755 10.0606 99.1046 10.4129 99.4418 10.6477C99.7827 10.8826 100.228 11 100.777 11C101.402 11 101.898 10.8674 102.266 10.6023C102.637 10.3333 102.822 10.0114 102.822 9.63636C102.822 9.33333 102.716 9.07955 102.504 8.875C102.292 8.66667 101.966 8.51136 101.527 8.40909L100.072 8.06818C99.2732 7.87879 98.6861 7.58523 98.3111 7.1875C97.9399 6.78598 97.7543 6.28409 97.7543 5.68182C97.7543 5.18939 97.8925 4.75379 98.169 4.375C98.4493 3.99621 98.83 3.69886 99.3111 3.48295C99.7959 3.26705 100.345 3.15909 100.959 3.15909C101.822 3.15909 102.5 3.34848 102.993 3.72727C103.489 4.10606 103.841 4.60606 104.05 5.22727ZM112.932 15.0682C111.773 15.0682 110.748 14.9091 109.858 14.5909C108.968 14.2765 108.22 13.8125 107.614 13.1989C107.008 12.5852 106.549 11.8333 106.239 10.9432C105.928 10.053 105.773 9.03409 105.773 7.88636C105.773 6.77651 105.93 5.78409 106.244 4.90909C106.563 4.03409 107.023 3.29167 107.625 2.68182C108.231 2.06818 108.966 1.60038 109.83 1.27841C110.697 0.956439 111.678 0.795454 112.773 0.795454C113.837 0.795454 114.769 0.969696 115.568 1.31818C116.371 1.66288 117.042 2.13068 117.58 2.72159C118.121 3.30871 118.527 3.9697 118.795 4.70455C119.068 5.43939 119.205 6.19697 119.205 6.97727C119.205 7.52651 119.178 8.08333 119.125 8.64773C119.072 9.21212 118.96 9.73106 118.79 10.2045C118.619 10.6742 118.356 11.053 118 11.3409C117.648 11.6288 117.17 11.7727 116.568 11.7727C116.303 11.7727 116.011 11.7311 115.693 11.6477C115.375 11.5644 115.093 11.4261 114.847 11.233C114.6 11.0398 114.455 10.7803 114.409 10.4545H114.341C114.25 10.6742 114.11 10.8826 113.92 11.0795C113.735 11.2765 113.491 11.4337 113.188 11.5511C112.888 11.6686 112.523 11.7197 112.091 11.7045C111.598 11.6856 111.165 11.5758 110.79 11.375C110.415 11.1705 110.1 10.8939 109.847 10.5455C109.597 10.1932 109.407 9.78598 109.278 9.32386C109.153 8.85795 109.091 8.35606 109.091 7.81818C109.091 7.30682 109.167 6.83901 109.318 6.41477C109.47 5.99053 109.68 5.61932 109.949 5.30114C110.222 4.98295 110.54 4.72917 110.903 4.53977C111.271 4.34659 111.667 4.22727 112.091 4.18182C112.47 4.14394 112.814 4.16098 113.125 4.23295C113.436 4.30114 113.691 4.4053 113.892 4.54545C114.093 4.68182 114.22 4.83333 114.273 5H114.341V4.36364H115.545V9.5C115.545 9.81818 115.634 10.0985 115.812 10.3409C115.991 10.5833 116.25 10.7045 116.591 10.7045C116.977 10.7045 117.273 10.572 117.477 10.3068C117.686 10.0417 117.828 9.63258 117.903 9.07955C117.983 8.52652 118.023 7.81818 118.023 6.95455C118.023 6.44697 117.953 5.94697 117.812 5.45455C117.676 4.95833 117.468 4.49432 117.188 4.0625C116.911 3.63068 116.561 3.25 116.136 2.92045C115.712 2.59091 115.214 2.33333 114.642 2.14773C114.074 1.95833 113.428 1.86364 112.705 1.86364C111.814 1.86364 111.017 2.00189 110.312 2.27841C109.612 2.55114 109.015 2.95076 108.523 3.47727C108.034 4 107.661 4.63636 107.403 5.38636C107.15 6.13258 107.023 6.98106 107.023 7.93182C107.023 8.89773 107.15 9.75568 107.403 10.5057C107.661 11.2557 108.04 11.8883 108.54 12.4034C109.044 12.9186 109.667 13.3087 110.409 13.5739C111.152 13.8428 112.008 13.9773 112.977 13.9773C113.394 13.9773 113.805 13.9375 114.21 13.858C114.616 13.7784 114.973 13.6913 115.284 13.5966C115.595 13.5019 115.818 13.4318 115.955 13.3864L116.273 14.4318C116.038 14.5303 115.731 14.6288 115.352 14.7273C114.977 14.8258 114.576 14.9072 114.148 14.9716C113.723 15.036 113.318 15.0682 112.932 15.0682ZM112.273 10.5455C112.78 10.5455 113.191 10.4432 113.506 10.2386C113.82 10.0341 114.049 9.72538 114.193 9.3125C114.337 8.89962 114.409 8.37879 114.409 7.75C114.409 7.11364 114.33 6.61742 114.17 6.26136C114.011 5.9053 113.777 5.6553 113.466 5.51136C113.155 5.36742 112.773 5.29545 112.318 5.29545C111.886 5.29545 111.517 5.40909 111.21 5.63636C110.907 5.85985 110.674 6.15909 110.511 6.53409C110.352 6.9053 110.273 7.31061 110.273 7.75C110.273 8.23485 110.337 8.69129 110.466 9.11932C110.595 9.54356 110.805 9.88826 111.097 10.1534C111.388 10.4148 111.78 10.5455 112.273 10.5455ZM124.871 12.1818C124.03 12.1818 123.304 11.9962 122.695 11.625C122.089 11.25 121.621 10.7273 121.291 10.0568C120.965 9.38258 120.803 8.59848 120.803 7.70455C120.803 6.81061 120.965 6.02273 121.291 5.34091C121.621 4.6553 122.079 4.12121 122.666 3.73864C123.257 3.35227 123.946 3.15909 124.734 3.15909C125.189 3.15909 125.638 3.23485 126.081 3.38636C126.524 3.53788 126.928 3.78409 127.291 4.125C127.655 4.46212 127.945 4.90909 128.161 5.46591C128.376 6.02273 128.484 6.70833 128.484 7.52273V8.09091H121.757V6.93182H127.121C127.121 6.43939 127.022 6 126.825 5.61364C126.632 5.22727 126.356 4.92235 125.996 4.69886C125.64 4.47538 125.219 4.36364 124.734 4.36364C124.2 4.36364 123.738 4.49621 123.348 4.76136C122.962 5.02273 122.664 5.36364 122.456 5.78409C122.248 6.20455 122.143 6.6553 122.143 7.13636V7.90909C122.143 8.56818 122.257 9.12689 122.484 9.58523C122.715 10.0398 123.036 10.3864 123.445 10.625C123.854 10.8598 124.329 10.9773 124.871 10.9773C125.223 10.9773 125.541 10.928 125.825 10.8295C126.113 10.7273 126.361 10.5758 126.57 10.375C126.778 10.1705 126.939 9.91667 127.053 9.61364L128.348 9.97727C128.212 10.4167 127.982 10.803 127.661 11.1364C127.339 11.4659 126.941 11.7235 126.467 11.9091C125.994 12.0909 125.462 12.1818 124.871 12.1818ZM131.29 3.27273L133.381 6.84091L135.472 3.27273H137.017L134.199 7.63636L137.017 12H135.472L133.381 8.61364L131.29 12H129.744L132.517 7.63636L129.744 3.27273H131.29ZM141.499 12.2045C140.946 12.2045 140.444 12.1004 139.993 11.892C139.542 11.6799 139.184 11.375 138.919 10.9773C138.654 10.5758 138.521 10.0909 138.521 9.52273C138.521 9.02273 138.62 8.61742 138.817 8.30682C139.014 7.99242 139.277 7.74621 139.607 7.56818C139.936 7.39015 140.3 7.25758 140.697 7.17045C141.099 7.07955 141.502 7.00758 141.908 6.95455C142.438 6.88636 142.868 6.83523 143.197 6.80114C143.531 6.76326 143.773 6.70076 143.925 6.61364C144.08 6.52652 144.158 6.375 144.158 6.15909V6.11364C144.158 5.55303 144.004 5.11742 143.697 4.80682C143.394 4.49621 142.934 4.34091 142.317 4.34091C141.677 4.34091 141.175 4.48106 140.811 4.76136C140.447 5.04167 140.192 5.34091 140.044 5.65909L138.771 5.20455C138.999 4.67424 139.302 4.26136 139.68 3.96591C140.063 3.66667 140.48 3.45833 140.93 3.34091C141.385 3.2197 141.832 3.15909 142.271 3.15909C142.552 3.15909 142.874 3.19318 143.237 3.26136C143.605 3.32576 143.959 3.46023 144.3 3.66477C144.644 3.86932 144.93 4.17803 145.158 4.59091C145.385 5.00379 145.499 5.55682 145.499 6.25V12H144.158V10.8182H144.089C143.999 11.0076 143.847 11.2102 143.635 11.4261C143.423 11.642 143.141 11.8258 142.788 11.9773C142.436 12.1288 142.006 12.2045 141.499 12.2045ZM141.703 11C142.233 11 142.68 10.8958 143.044 10.6875C143.411 10.4792 143.688 10.2102 143.874 9.88068C144.063 9.55114 144.158 9.20455 144.158 8.84091V7.61364C144.101 7.68182 143.976 7.74432 143.783 7.80114C143.593 7.85417 143.374 7.90151 143.124 7.94318C142.877 7.98106 142.637 8.01515 142.402 8.04545C142.171 8.07197 141.983 8.0947 141.839 8.11364C141.491 8.15909 141.165 8.23295 140.862 8.33523C140.563 8.43371 140.321 8.58333 140.135 8.78409C139.953 8.98106 139.862 9.25 139.862 9.59091C139.862 10.0568 140.035 10.4091 140.379 10.6477C140.728 10.8826 141.169 11 141.703 11ZM147.946 12V3.27273H149.241V4.63636H149.355C149.537 4.17045 149.83 3.80871 150.236 3.55114C150.641 3.28977 151.128 3.15909 151.696 3.15909C152.272 3.15909 152.751 3.28977 153.134 3.55114C153.52 3.80871 153.821 4.17045 154.037 4.63636H154.128C154.351 4.18561 154.687 3.82765 155.134 3.5625C155.58 3.29356 156.116 3.15909 156.741 3.15909C157.522 3.15909 158.16 3.40341 158.656 3.89205C159.152 4.37689 159.401 5.13258 159.401 6.15909V12H158.06V6.15909C158.06 5.51515 157.884 5.05492 157.531 4.77841C157.179 4.50189 156.764 4.36364 156.287 4.36364C155.673 4.36364 155.198 4.54924 154.861 4.92045C154.524 5.28788 154.355 5.75379 154.355 6.31818V12H152.991V6.02273C152.991 5.52652 152.83 5.12689 152.509 4.82386C152.187 4.51705 151.772 4.36364 151.264 4.36364C150.916 4.36364 150.59 4.45644 150.287 4.64205C149.988 4.82765 149.745 5.08523 149.56 5.41477C149.378 5.74053 149.287 6.11742 149.287 6.54545V12H147.946ZM161.852 15.2727V3.27273H163.148V4.65909H163.307C163.405 4.50758 163.542 4.31439 163.716 4.07955C163.894 3.84091 164.148 3.62879 164.477 3.44318C164.811 3.25379 165.261 3.15909 165.83 3.15909C166.564 3.15909 167.212 3.3428 167.773 3.71023C168.333 4.07765 168.771 4.59848 169.085 5.27273C169.4 5.94697 169.557 6.74242 169.557 7.65909C169.557 8.58333 169.4 9.38447 169.085 10.0625C168.771 10.7367 168.335 11.2595 167.778 11.6307C167.222 11.9981 166.58 12.1818 165.852 12.1818C165.292 12.1818 164.843 12.089 164.506 11.9034C164.169 11.714 163.909 11.5 163.727 11.2614C163.545 11.0189 163.405 10.8182 163.307 10.6591H163.193V15.2727H161.852ZM163.17 7.63636C163.17 8.29545 163.267 8.87689 163.46 9.38068C163.653 9.88068 163.936 10.2727 164.307 10.5568C164.678 10.8371 165.133 10.9773 165.67 10.9773C166.231 10.9773 166.699 10.8295 167.074 10.5341C167.453 10.2348 167.737 9.83333 167.926 9.32955C168.119 8.82197 168.216 8.25758 168.216 7.63636C168.216 7.02273 168.121 6.4697 167.932 5.97727C167.746 5.48106 167.464 5.08902 167.085 4.80114C166.71 4.50947 166.239 4.36364 165.67 4.36364C165.125 4.36364 164.667 4.50189 164.295 4.77841C163.924 5.05114 163.644 5.43371 163.455 5.92614C163.265 6.41477 163.17 6.98485 163.17 7.63636ZM172.943 0.363636V12H171.602V0.363636H172.943ZM179.058 12.1818C178.217 12.1818 177.492 11.9962 176.882 11.625C176.276 11.25 175.808 10.7273 175.479 10.0568C175.153 9.38258 174.99 8.59848 174.99 7.70455C174.99 6.81061 175.153 6.02273 175.479 5.34091C175.808 4.6553 176.267 4.12121 176.854 3.73864C177.445 3.35227 178.134 3.15909 178.922 3.15909C179.376 3.15909 179.825 3.23485 180.268 3.38636C180.712 3.53788 181.115 3.78409 181.479 4.125C181.842 4.46212 182.132 4.90909 182.348 5.46591C182.564 6.02273 182.672 6.70833 182.672 7.52273V8.09091H175.945V6.93182H181.308C181.308 6.43939 181.21 6 181.013 5.61364C180.82 5.22727 180.543 4.92235 180.183 4.69886C179.827 4.47538 179.407 4.36364 178.922 4.36364C178.388 4.36364 177.926 4.49621 177.536 4.76136C177.149 5.02273 176.852 5.36364 176.643 5.78409C176.435 6.20455 176.331 6.6553 176.331 7.13636V7.90909C176.331 8.56818 176.445 9.12689 176.672 9.58523C176.903 10.0398 177.223 10.3864 177.632 10.625C178.041 10.8598 178.517 10.9773 179.058 10.9773C179.411 10.9773 179.729 10.928 180.013 10.8295C180.301 10.7273 180.549 10.5758 180.757 10.375C180.965 10.1705 181.126 9.91667 181.24 9.61364L182.536 9.97727C182.399 10.4167 182.17 10.803 181.848 11.1364C181.526 11.4659 181.128 11.7235 180.655 11.9091C180.181 12.0909 179.649 12.1818 179.058 12.1818ZM185.689 12.0909C185.409 12.0909 185.168 11.9905 184.967 11.7898C184.767 11.589 184.666 11.3485 184.666 11.0682C184.666 10.7879 184.767 10.5473 184.967 10.3466C185.168 10.1458 185.409 10.0455 185.689 10.0455C185.969 10.0455 186.21 10.1458 186.411 10.3466C186.611 10.5473 186.712 10.7879 186.712 11.0682C186.712 11.2538 186.664 11.4242 186.57 11.5795C186.479 11.7348 186.356 11.8598 186.2 11.9545C186.049 12.0455 185.878 12.0909 185.689 12.0909ZM192.663 12.1818C191.845 12.1818 191.141 11.9886 190.55 11.6023C189.959 11.2159 189.504 10.6837 189.186 10.0057C188.868 9.32765 188.709 8.55303 188.709 7.68182C188.709 6.79545 188.872 6.01326 189.197 5.33523C189.527 4.65341 189.985 4.12121 190.572 3.73864C191.163 3.35227 191.853 3.15909 192.641 3.15909C193.254 3.15909 193.807 3.27273 194.3 3.5C194.792 3.72727 195.196 4.04545 195.51 4.45455C195.824 4.86364 196.019 5.34091 196.095 5.88636H194.754C194.652 5.48864 194.425 5.13636 194.072 4.82955C193.724 4.51894 193.254 4.36364 192.663 4.36364C192.141 4.36364 191.682 4.5 191.288 4.77273C190.898 5.04167 190.593 5.42235 190.374 5.91477C190.158 6.40341 190.05 6.97727 190.05 7.63636C190.05 8.31061 190.156 8.89773 190.368 9.39773C190.584 9.89773 190.887 10.286 191.277 10.5625C191.671 10.839 192.133 10.9773 192.663 10.9773C193.012 10.9773 193.328 10.9167 193.612 10.7955C193.896 10.6742 194.137 10.5 194.334 10.2727C194.531 10.0455 194.671 9.77273 194.754 9.45455H196.095C196.019 9.9697 195.832 10.4337 195.533 10.8466C195.237 11.2557 194.845 11.5814 194.357 11.8239C193.872 12.0625 193.307 12.1818 192.663 12.1818ZM201.601 12.1818C200.813 12.1818 200.122 11.9943 199.527 11.6193C198.936 11.2443 198.474 10.7197 198.141 10.0455C197.811 9.37121 197.646 8.58333 197.646 7.68182C197.646 6.77273 197.811 5.97917 198.141 5.30114C198.474 4.62311 198.936 4.09659 199.527 3.72159C200.122 3.34659 200.813 3.15909 201.601 3.15909C202.389 3.15909 203.078 3.34659 203.669 3.72159C204.264 4.09659 204.726 4.62311 205.055 5.30114C205.389 5.97917 205.555 6.77273 205.555 7.68182C205.555 8.58333 205.389 9.37121 205.055 10.0455C204.726 10.7197 204.264 11.2443 203.669 11.6193C203.078 11.9943 202.389 12.1818 201.601 12.1818ZM201.601 10.9773C202.199 10.9773 202.692 10.8239 203.078 10.517C203.464 10.2102 203.75 9.80682 203.936 9.30682C204.122 8.80682 204.214 8.26515 204.214 7.68182C204.214 7.09848 204.122 6.55492 203.936 6.05114C203.75 5.54735 203.464 5.14015 203.078 4.82955C202.692 4.51894 202.199 4.36364 201.601 4.36364C201.002 4.36364 200.51 4.51894 200.124 4.82955C199.737 5.14015 199.451 5.54735 199.266 6.05114C199.08 6.55492 198.987 7.09848 198.987 7.68182C198.987 8.26515 199.08 8.80682 199.266 9.30682C199.451 9.80682 199.737 10.2102 200.124 10.517C200.51 10.8239 201.002 10.9773 201.601 10.9773ZM207.602 12V3.27273H208.898V4.63636H209.011C209.193 4.17045 209.487 3.80871 209.892 3.55114C210.297 3.28977 210.784 3.15909 211.352 3.15909C211.928 3.15909 212.407 3.28977 212.79 3.55114C213.176 3.80871 213.477 4.17045 213.693 4.63636H213.784C214.008 4.18561 214.343 3.82765 214.79 3.5625C215.237 3.29356 215.773 3.15909 216.398 3.15909C217.178 3.15909 217.816 3.40341 218.312 3.89205C218.809 4.37689 219.057 5.13258 219.057 6.15909V12H217.716V6.15909C217.716 5.51515 217.54 5.05492 217.188 4.77841C216.835 4.50189 216.42 4.36364 215.943 4.36364C215.33 4.36364 214.854 4.54924 214.517 4.92045C214.18 5.28788 214.011 5.75379 214.011 6.31818V12H212.648V6.02273C212.648 5.52652 212.487 5.12689 212.165 4.82386C211.843 4.51705 211.428 4.36364 210.92 4.36364C210.572 4.36364 210.246 4.45644 209.943 4.64205C209.644 4.82765 209.402 5.08523 209.216 5.41477C209.034 5.74053 208.943 6.11742 208.943 6.54545V12H207.602Z" fill="#F3F3F3"/>
</svg>
